<?xml version="1.0" standalone="no"?>
<!DOCTYPE svg PUBLIC "-//W3C//DTD SVG 20010904//EN"
 "http://www.w3.org/TR/2001/REC-SVG-20010904/DTD/svg10.dtd">
<svg version="1.0" xmlns="http://www.w3.org/2000/svg"
 width="512.000000pt" height="512.000000pt" viewBox="0 0 512.000000 512.000000"
 preserveAspectRatio="xMidYMid meet">

<g transform="translate(0.000000,512.000000) scale(0.100000,-0.100000)"
fill="#000000" stroke="none">
<path d="M2321 5110 c-434 -42 -855 -196 -1212 -442 -48 -33 -92 -71 -98 -84
-6 -15 -11 -85 -11 -174 l0 -150 -160 0 c-240 0 -240 0 -240 -240 l0 -160 -60
0 c-70 0 -111 -17 -128 -55 -15 -33 -15 -57 0 -90 22 -48 52 -55 228 -55 l160
0 0 -100 0 -100 -160 0 c-176 0 -206 -7 -228 -55 -8 -17 -12 -94 -12 -235 l0
-210 -160 0 c-176 0 -206 -7 -228 -55 -16 -34 -15 -60 2 -94 23 -44 52 -51
226 -51 l160 0 0 -350 0 -350 -110 0 c-123 0 -158 -11 -178 -55 -15 -33 -15
-57 0 -90 23 -50 49 -55 278 -55 l210 0 0 -100 0 -100 -160 0 c-176 0 -206 -7
-228 -55 -15 -33 -15 -57 0 -90 23 -51 45 -55 328 -55 l260 0 0 -100 0 -100
-210 0 c-163 0 -217 -3 -239 -14 -66 -35 -66 -137 0 -172 22 -11 83 -14 289
-14 l260 0 0 -160 c0 -246 -8 -240 290 -240 l210 0 0 -160 c0 -246 -8 -240
290 -240 l210 0 0 -66 c0 -111 30 -127 310 -171 140 -21 515 -24 660 -5 383
51 726 173 1053 375 136 84 177 123 177 170 0 26 -8 46 -29 69 -48 53 -84 47
-216 -41 -422 -280 -957 -421 -1452 -382 -87 7 -189 18 -228 24 l-70 12 -3 77
c-3 71 -5 80 -33 108 l-31 30 -219 0 -219 0 0 100 0 100 69 0 c64 0 72 2 100
31 43 43 43 95 0 138 l-31 31 -319 0 -319 0 0 169 0 169 -31 31 c-17 17 -39
31 -50 31 -17 0 -19 8 -19 100 l0 100 69 0 c64 0 72 2 100 31 43 43 43 95 0
138 l-31 31 -169 0 -169 0 0 100 0 100 69 0 c64 0 72 2 100 31 43 43 43 95 0
138 l-31 31 -169 0 -169 0 0 200 0 200 2158 0 2159 0 -4 -57 c-25 -366 -144
-742 -338 -1068 -59 -98 -67 -137 -39 -180 9 -14 33 -30 54 -36 79 -24 119 23
260 306 171 342 253 665 267 1049 26 708 -243 1390 -748 1895 -398 398 -880
639 -1449 726 -125 19 -467 27 -599 15z m569 -215 c419 -63 814 -233 1140
-493 200 -159 416 -405 549 -625 179 -296 302 -672 326 -992 4 -44 8 -90 11
-102 l4 -23 -2160 0 -2160 0 0 300 0 300 369 0 369 0 31 31 c43 43 43 95 0
138 l-31 31 -169 0 -169 0 0 100 0 100 69 0 c64 0 72 2 100 31 43 43 43 95 0
138 l-31 31 -169 0 -169 0 0 100 0 100 369 0 369 0 31 31 c43 43 43 95 0 138
l-31 31 -169 0 -169 0 0 114 0 114 93 60 c114 74 302 168 427 215 236 88 393
122 685 151 79 8 382 -4 485 -19z"/>
<path d="M3010 4554 c-279 -54 -501 -215 -625 -455 -72 -138 -90 -218 -90
-389 1 -172 13 -228 85 -375 85 -175 224 -311 400 -394 136 -63 194 -75 360
-75 168 0 226 12 365 78 223 106 395 313 461 556 25 91 25 329 0 420 -45 166
-152 333 -280 442 -78 65 -232 146 -331 173 -59 16 -293 29 -345 19z m265
-209 c39 -8 108 -33 155 -56 169 -83 307 -260 345 -444 31 -146 12 -285 -56
-425 -59 -119 -170 -230 -289 -289 -193 -94 -387 -94 -580 0 -169 83 -307 260
-345 444 -31 146 -12 285 56 425 82 167 259 306 439 344 86 19 189 19 275 1z"/>
<path d="M3043 4046 c-103 -34 -176 -98 -222 -196 -22 -46 -26 -69 -26 -140 0
-76 4 -93 33 -152 38 -77 92 -130 171 -167 47 -22 70 -26 141 -26 71 0 94 4
141 26 79 37 133 90 171 167 29 59 33 76 33 152 0 71 -4 94 -26 141 -58 124
-169 199 -302 205 -43 3 -89 -2 -114 -10z m144 -197 c67 -25 111 -99 98 -165
-8 -45 -57 -100 -101 -114 -100 -33 -209 62 -190 165 12 62 82 124 143 125 12
0 34 -5 50 -11z"/>
<path d="M1319 2131 c-41 -42 -41 -98 2 -140 l31 -31 238 0 238 0 31 31 c24
23 31 39 31 69 0 30 -7 46 -31 69 l-31 31 -240 0 -240 0 -29 -29z"/>
<path d="M1419 1731 c-41 -42 -41 -98 2 -140 29 -30 34 -31 119 -31 85 0 90 1
119 31 24 23 31 39 31 69 0 30 -7 46 -31 69 -30 30 -33 31 -121 31 -86 0 -91
-1 -119 -29z"/>
<path d="M2019 1331 c-41 -42 -41 -98 2 -140 l31 -31 338 0 338 0 31 31 c24
23 31 39 31 69 0 30 -7 46 -31 69 l-31 31 -340 0 -340 0 -29 -29z"/>
<path d="M2119 931 c-41 -42 -41 -98 2 -140 29 -30 34 -31 119 -31 85 0 90 1
119 31 24 23 31 39 31 69 0 30 -7 46 -31 69 -30 30 -33 31 -121 31 -86 0 -91
-1 -119 -29z"/>
<path d="M2919 931 c-41 -42 -41 -98 2 -140 l31 -31 238 0 238 0 31 31 c24 23
31 39 31 69 0 30 -7 46 -31 69 l-31 31 -240 0 -240 0 -29 -29z"/>
<path d="M4269 931 c-48 -49 -38 -125 21 -156 42 -22 74 -19 109 11 38 32 49
80 27 122 -32 61 -108 72 -157 23z"/>
</g>
</svg>
